<svg height="81" width="339" xmlns="http://www.w3.org/2000/svg">
  <g id="svg_1">
    <g id="svg_2">
      <g fill="#2C3C69" id="svg_3">
        <path d="M76.6 68.9V37.5h7.7v24.8h12.1v6.6H76.6z" id="svg_4"/>
        <path d="M121.5 59.2c0-.8 0-.5 0 0v.6h-16c0 .7.2 1.3 1 1.7s.3 1 .7 1.3c.5.4 1 .7 1.7.9l1.9.5c1.1 0 2.1-.4 2.9-.8.8-.5 2.3-1 2-1.7l5 3.2a10 10 0 0 1-4.1 3.5 15.1 15.1 0 0 1-10.6.4c-1.5-.5-2.8-1.3-3-2.2-2-1-2-2.3-3.5-3.7s-1-3.1-1-5c0-1.8.3-3.4 1-4.7s1.4-2.9 2.5-3.9c1.5-1 2.3-1.8 3.8-2.4 1.4-.5 3-.1 4.7-.1 2.3 0 3-.4 4.4.1s2.6 1.3 3.5 2.4a9 9 0 0 1 2.3 4.1c.6 1.1.8 2.8.8 5.8zm-6.7-3.9c0-1.1-.3-2.1-1-3-.4-.8-1.9-.4-3.3-.4-.7 0-.5-.7-2-.5a4.7 4.7 0 0 0-3 3.9h9.3z" id="svg_5"/>
        <path d="M133.2 52.2v8.5c0 1 .2 1.8.6 2.5.4.3 1 .6 2.1.6l1.6-.1s.3-.2 1-.3l.5 5.3c-1.4.2-2 1-2.8.5-2 .4-4 .2-6-.3a5.7 5.7 0 0 1-3.7-4.1c-.3-1 .2-2 .2-3.3v-9.3h-4.2v-5.4h3.8v-5.6h6.9v5.6h5.2v5.4h-5.2z" id="svg_6"/>
        <path d="M162 53.3c-.7-.6-1.4-1-2.2-1.4-.5-.4-1.6-.6-2.5-.6a4 4 0 0 0-1.9.4c-.6.6-.9.7-.9 2.2 0-.2.4.3 1 .5l3 .9c1 .2 1.7.4 3.4 1.3s.8.2 1.5.7c1.2.6 1.2 1.2 1.8 2 .2 1.4.4 2 .4 3.2 0 1-.2 2.1-.8 3-.6 1-1.3 1.8-2.2 2.4s-2 1-3 1.3c-2.9.6-5.9.4-8.7-.5-1.7-.6-3.2-1.4-4.3-2.5l4-4.3c.7.7 2.3 1.3 2.8 1.7.6.5 1.6.8 3.2.8l1.2-.5c.6-.2.9-.7.9-1.5 0-.6-.4-1.1-1-1.5l-3.4-1a17 17 0 0 1-2.3-.7c-.8-.3-1.5-.7-2-.4l-1.6-2.7c0-.7-.5-1.6-.5-2.6 0-1.3 1.1-2.3.8-2.6.7-1.2 1.1-2.3 2.2-3 .9-.7 1.8-1.1 3-1.4s2 .3 3.5.3c1.3 0 3-.5 4.5 0 1.6.6 3 1.3 4 2.4l-4 4.1z" id="svg_7"/>
        <path d="M179.6 68.9V37.5h21v6.4H187v5.9h13v6h-13v6.6h14.6v6.5h-22z" id="svg_8"/>
        <path d="M220.7 68.9v-12c0-.7 0-1.3-.2-1.5 0-1-.3-1 .4-1.8l-.9-1c-1.4-.3-1.6-.4-2.6-.4s-1.2 0-1.7.3-1 .6-1.2 1l-.8 1.6-.2 1.8v12h-7.3V46.8h7v3h.1c.6-1 1.5-1.9 2.6-2.5.5 0 1.8-.6 1.8-.8.7-.2 1.5-.3 2.2-.3 1.5 0 2.8.2 3.8 1.2s1.9.8 2.5 1.9a7 7 0 0 1 1.4 2.6c.3 1.4.4 2.2.4 3.3v14.2h-7.3z" id="svg_9"/>
        <path d="M246.7 54.4c-.4-1-1-1-1.4-1.8a8 8 0 0 0-2.4-.4s-1.5.1-2.1.4-1.2.7-1.6 1.3a6.1 6.1 0 0 0-1.4 4c0 .7 0 1.4 1.2 2.8-.7 0-.3.6 1 1.1-.4.5 1 1 .8 1.4l2.1.3c-.1 0 1.5-.2 3.1 0s.4-1.1.9-1.7l4 5c-.1.8-2 1.5-3.5 2a14.4 14.4 0 0 1-9.6 0c-1.4-.5-2.3-1.3-3.9-2.3-1-1-2-2.3-2.6-3.7s-1-3.1-1-5c0-1.5.4-3.4 1-4.4.6-1.8 1.5-3 2.6-4.1 1.6-1 2.5-1.9 4-2.4s3.4-.1 4.8-.1c.8 0 1.6-.6 3.2-.5l1.5.6 2 1c.6.3 1 .7 1.5 1.6l-4.2 4.4z" id="svg_10"/>
        <path d="M268.3 52.8c-.6-.1-1-.2-.5-.2h-1.6c-1 0-1.8.1-2.5 1.3-.3-.5-1.2 0-.7.5-1.3.5-1.6 1-1.8 2.1l-.2 1v12h-7.3v-22h7v3.4h.1c.6-2 1.4-2.8 2.4-3.6a6 6 0 0 1 3.6-1h.9l.6.1v6.5z" id="svg_11"/>
        <path d="M286 72.2c-1.3 1.2-1 2.2-2.4 3 .3 1-1.2 2.3-2 2.4-.7.6-1.2 1.1-2.4 1.8l-3.8.1-2.1-.1c-.7-.1-1.4-.2-1.9 0l.8-6.5c.4.4.8.2 1.2.3l1.2.1c1 0 1.9.3 3-.8l.7-2.2.9-1.8-9.4-21.7h8l5 14.7h.1l4.4-14.7h7.9l-10 25.4z" id="svg_12"/>
        <path d="M321.5 57.7a13 13 0 0 1-2.7 8.2c-1 2-2 2-3.4 2.6-2.6 1.3-5.6 1.4-7.4.2a6 6 0 0 1-3.7-2.3h-.1v13.1h-7.3V46.8h7v2.7c1.8-2.2 4.5-2.9 7.4-3.3 1.3 0 3.4.3 4 2.4 1.4-.9 2.5 0 3.4 1s1.6 2.3 2 3.7c.6 1.4.8 3 .8 4.4zm-7 0l.5-2c-1.1-.2-1.4-1.3-1-1.8-1.8-1.1-3.2-1.8-4.7-1.8-.9 0-1.6.2-2 .5-1 .3-1.5.8-2 1.3-.4.5-.7 1.3-1 1.8.2.7-.4 2-.4 2s.6 1.5.4 2.2c.3.7.6 1.3 1 1.8l2 1.8c.4-.2 1.1 0 2 0 1.7 0 1.6-.2 2.2 0 1.3-1.1 2.2-2.2 3.5-3.6-.7-.7-.6-1.4-.6-2.2z" id="svg_13"/>
        <path d="M334 52.2v8.5c0 1-.7 1.8-.3 2.9 1.3-.1 1.1.2 2.2.2l1.1-.1c.4 0 .7-.2 1-.3l.9 5.3c-1.3.2-2 1-2.7.5-2 .4-4 .2-6-.3a5.7 5.7 0 0 1-3.8-4.1c-.2-1-.2-2-.2-3.3v-9.3h-3.7v-5.4h3.5v-5.2h8v5.2h4.3v5.4H334z" id="svg_14"/>
      </g>
    </g>
    <path d="M146 36.9c-3.2 0-4 1.5-4 3.6 0 2 .6 3.7 2.7 3.8h.5c-.3 1.2-1.8 2.3-3.3 2.6h-.2v3.4h.6c1.5.5 3.2-1 4.4-1.5 1.6-2.3 2.5-4.6 2.5-7.3s-1.8-4.2-3.2-4.2z" fill="#2C3C69" id="svg_15"/>
  </g>
  <g id="svg_16">
    <path d="M46.5 37.6h-8v-4.2c0-2.5-2.7-6-6-6s-6 3.5-6 6v4.2h-8v-4.2a14 14 0 1 1 28 0v4.2z" fill="#F9A11D" id="svg_17"/>
  </g>
  <path d="M49.7 37.6H15.2a2.7 2.7 0 0 0-2.7 2.6v25.6c0 1.5 1.2 2.7 2.7 2.7h34.5c1.5 0 2.7-1.2 2.7-2.7V40.2c0-1.4-1.2-2.6-2.7-2.6zM34.2 54.3v3.5a1.8 1.8 0 0 1-3.5 0v-3.5a3.5 3.5 0 0 1 1.8-6.6c2 0 3.7 1.6 3.7 3.5 0 1.4-1 2.5-2 3.1z" fill="#2C3C69" id="svg_18"/>
  <path d="M11.7 33.8H3.4c-1.2 0-2.5-1.1-2.5-2.5s1.3-2 2.5-1.7l8.3-.4c1.9 0 2.5 1 2.5 2.2s-.6 2.5-2.5 2.5z" fill="#F9A11D" id="svg_19"/>
  <path d="M17.6 20.7c-.3 0-1.1-.2-1.4.6l-6.8-6.6c-1-.9-1.2-2.4.6-3.5 0-1 1.5-.8 2.5-.3l7.5 5.4.6 3.5c-.9.3-2 1-3 .9z" fill="#F9A11D" id="svg_20"/>
  <path d="M32.5 14.9c-.5 0-2.3-1.1-2.3-2.5V4.5c0-1.8 1-2.9 2.3-2.9s2.4 1.1 2.4 3v7.8c0 1.4-1 2.5-2.4 2.5z" fill="#F9A11D" id="svg_21"/>
  <g id="svg_22">
    <g id="svg_23">
      <path d="M47.4 20.7c-1.1.1-2.2-.5-2.6-1.6-.3-.2 0-2.2 1-2.8l6.6-5.4c1-.5 2.6-.7 3.4.3.9 1 .7 2.6-.3 3.5l-6.6 7.2c-.4-1.4-1-1.2-1.5-1.2z" fill="#F9A11D" id="svg_24"/>
    </g>
  </g>
  <path d="M61.6 33.8h-8.4a2.5 2.5 0 0 1 0-5h8.4c1.3 0 3.3 1.3 3.3 2.5s-2 2.5-3.3 2.5z" fill="#F9A11D" id="svg_25"/>
</svg>
