<?xml version="1.0" encoding="utf-8"?>
<!-- Generator: Adobe Illustrator 14.0.0, SVG Export Plug-In . SVG Version: 6.00 Build 43363)  -->
<!DOCTYPE svg PUBLIC "-//W3C//DTD SVG 1.1//EN" "http://www.w3.org/Graphics/SVG/1.1/DTD/svg11.dtd">
<svg version="1.1" xmlns="http://www.w3.org/2000/svg" xmlns:xlink="http://www.w3.org/1999/xlink" x="0px" y="0px"
	 width="592.44px" height="136.06px" viewBox="0 0 592.44 136.06" enable-background="new 0 0 592.44 136.06" xml:space="preserve">
<g id="Ebene_1_Kopie">
	<polygon fill="#84BF74" points="0,136.599 47.684,49.263 68.124,79 119.222,1.922 148.953,49.263 170.002,25.472 197.264,72.031 
		225.135,41.835 267.871,110.588 318.97,7.458 355.203,65.989 373.785,32.543 401.656,80.857 442.535,7.458 475.052,65.063 
		498.231,35.039 523.362,72.031 538.538,49.263 592.44,136.599 	"/>
	<g>
		<path d="M63.328,122.972c-1.746,0-3.271-0.186-4.577-0.555c-1.306-0.369-2.402-0.896-3.291-1.58
			c-0.889-0.685-1.569-1.51-2.041-2.478c-0.472-0.967-0.747-2.056-0.826-3.267h1.864c0.188,1.164,0.542,2.131,1.062,2.901
			c0.519,0.771,1.159,1.384,1.922,1.84c0.763,0.456,1.631,0.778,2.606,0.968c0.975,0.188,2.013,0.282,3.114,0.282
			c1.148,0,2.182-0.121,3.102-0.365c0.92-0.243,1.706-0.598,2.359-1.062c0.652-0.464,1.152-1.022,1.498-1.675
			c0.346-0.652,0.519-1.388,0.519-2.206c0-0.864-0.15-1.592-0.448-2.182c-0.299-0.59-0.802-1.104-1.51-1.545
			s-1.639-0.834-2.795-1.18c-1.156-0.346-2.591-0.699-4.305-1.062c-1.415-0.314-2.63-0.676-3.645-1.085
			c-1.014-0.409-1.852-0.885-2.512-1.427c-0.66-0.543-1.148-1.164-1.462-1.864c-0.315-0.699-0.472-1.513-0.472-2.441
			c0-1.006,0.212-1.926,0.637-2.76c0.425-0.833,1.026-1.549,1.805-2.146s1.714-1.062,2.807-1.392c1.093-0.331,2.3-0.496,3.621-0.496
			c1.321,0,2.532,0.153,3.633,0.46c1.101,0.307,2.064,0.752,2.89,1.333c0.826,0.582,1.494,1.29,2.005,2.123
			c0.511,0.834,0.837,1.777,0.979,2.831h-1.816c-0.173-0.692-0.456-1.337-0.849-1.935s-0.9-1.112-1.521-1.545
			c-0.622-0.433-1.36-0.771-2.217-1.015c-0.857-0.243-1.836-0.365-2.937-0.365c-2.312,0-4.062,0.425-5.249,1.273
			c-1.188,0.85-1.781,2.014-1.781,3.491c0,0.677,0.11,1.267,0.331,1.77c0.22,0.503,0.593,0.955,1.12,1.356
			c0.527,0.4,1.223,0.755,2.088,1.062c0.865,0.307,1.942,0.594,3.232,0.86c0.754,0.158,1.533,0.323,2.335,0.496
			c0.802,0.173,1.584,0.377,2.347,0.613c0.763,0.235,1.49,0.527,2.182,0.873c0.692,0.346,1.293,0.771,1.805,1.273
			c0.511,0.504,0.92,1.104,1.227,1.805s0.46,1.529,0.46,2.488c0,1.102-0.232,2.111-0.696,3.031s-1.109,1.715-1.935,2.383
			c-0.826,0.669-1.809,1.188-2.948,1.557C65.903,122.786,64.665,122.972,63.328,122.972z"/>
		<path d="M96.417,122.5h-2.265l-3.161-8.304H78.277c-0.457,1.306-0.952,2.686-1.486,4.14c-0.535,1.455-1.046,2.843-1.533,4.164
			h-2.005c0.85-2.233,1.687-4.419,2.513-6.558c0.825-2.139,1.647-4.266,2.465-6.382c0.817-2.114,1.64-4.241,2.465-6.381
			c0.825-2.138,1.663-4.316,2.512-6.534h2.666L96.417,122.5z M90.449,112.71l-5.992-14.366l-5.685,14.366H90.449z"/>
		<path d="M113.418,122.5H98.203V96.669h1.887v23.943h13.328V122.5z"/>
		<path d="M133.839,122.5h-19.862v-2.501l17.433-21.442H115.51v-1.888h17.833v2.524l-17.456,21.419h17.952V122.5z"/>
		<path d="M155.062,115.258c0,2.344-0.791,4.137-2.371,5.378c-1.58,1.243-3.904,1.864-6.97,1.864h-9.389V96.669h9.341
			c2.595,0,4.58,0.492,5.957,1.475c1.375,0.983,2.064,2.552,2.064,4.706c0,0.598-0.059,1.215-0.177,1.852
			c-0.118,0.638-0.334,1.231-0.648,1.781c-0.315,0.551-0.747,1.042-1.297,1.475c-0.551,0.433-1.258,0.743-2.123,0.932
			c1.21,0.11,2.182,0.374,2.913,0.79c0.731,0.417,1.297,0.924,1.699,1.521c0.401,0.598,0.668,1.255,0.802,1.97
			C154.995,113.886,155.062,114.582,155.062,115.258z M138.219,108.016h6.935c2.296,0,3.987-0.369,5.072-1.108
			s1.627-1.981,1.627-3.728c0-1.572-0.503-2.739-1.509-3.503c-1.007-0.763-2.619-1.144-4.836-1.144l-7.289,0.023V108.016z
			 M138.219,120.612h7.478c4.875,0,7.313-1.784,7.313-5.354c0-0.928-0.126-1.729-0.377-2.406c-0.252-0.676-0.681-1.23-1.286-1.663
			c-0.605-0.433-1.408-0.755-2.406-0.967c-0.999-0.213-2.253-0.318-3.763-0.318h-6.958V120.612z"/>
		<path d="M168.312,122.972c-1.541,0-2.858-0.161-3.951-0.483s-2.001-0.759-2.725-1.31c-0.723-0.55-1.297-1.195-1.722-1.935
			c-0.425-0.738-0.747-1.525-0.967-2.358c-0.22-0.834-0.358-1.698-0.413-2.595c-0.056-0.896-0.083-1.77-0.083-2.619V96.669h1.887
			v14.933c0,1.966,0.177,3.566,0.531,4.801c0.354,1.234,0.873,2.197,1.557,2.89c0.684,0.691,1.518,1.164,2.5,1.415
			c0.982,0.252,2.111,0.377,3.385,0.377c1.29,0,2.434-0.125,3.433-0.377c0.999-0.251,1.832-0.728,2.5-1.427
			c0.668-0.7,1.175-1.663,1.521-2.891c0.346-1.227,0.519-2.822,0.519-4.788V96.669h1.887v15.003c0,1.777-0.15,3.366-0.448,4.766
			c-0.299,1.399-0.818,2.583-1.557,3.55c-0.739,0.968-1.746,1.707-3.02,2.218S170.262,122.972,168.312,122.972z"/>
		<path d="M203.312,122.5h-2.076l-2.571-6.865c-0.251-0.66-0.531-1.281-0.837-1.863c-0.307-0.581-0.665-1.089-1.073-1.521
			c-0.409-0.433-0.877-0.774-1.403-1.026c-0.527-0.251-1.144-0.377-1.852-0.377h-9.035V122.5h-1.887V96.669h11.63
			c1.085,0,2.135,0.099,3.149,0.295c1.014,0.197,1.918,0.547,2.713,1.05c0.794,0.504,1.427,1.199,1.899,2.088
			s0.708,2.025,0.708,3.409c0,0.864-0.106,1.671-0.318,2.417c-0.212,0.748-0.535,1.416-0.967,2.006s-0.983,1.093-1.651,1.51
			s-1.451,0.719-2.347,0.908c0.487,0.377,0.889,0.739,1.203,1.085s0.586,0.716,0.814,1.108c0.228,0.394,0.433,0.826,0.613,1.298
			s0.389,1.014,0.625,1.627L203.312,122.5z M184.464,108.959h8.964c1.274,0,2.367-0.094,3.279-0.282
			c0.912-0.189,1.663-0.499,2.253-0.933c0.59-0.432,1.026-0.994,1.309-1.687c0.283-0.691,0.425-1.541,0.425-2.547
			c0-1.777-0.563-3.047-1.687-3.811c-1.125-0.762-2.804-1.144-5.037-1.144h-9.506V108.959z"/>
		<path d="M217.812,122.972c-1.84,0-3.519-0.322-5.036-0.968c-1.518-0.645-2.819-1.553-3.904-2.724
			c-1.085-1.172-1.922-2.587-2.512-4.246c-0.589-1.659-0.884-3.504-0.884-5.532c0-2.044,0.298-3.884,0.896-5.52
			c0.597-1.636,1.435-3.031,2.512-4.188c1.077-1.156,2.362-2.044,3.856-2.666c1.494-0.62,3.146-0.932,4.954-0.932
			c1.416,0,2.736,0.178,3.964,0.531c1.227,0.354,2.319,0.857,3.278,1.51s1.754,1.436,2.383,2.347
			c0.629,0.912,1.062,1.927,1.297,3.043h-2.028c-0.126-0.755-0.429-1.466-0.908-2.135c-0.479-0.668-1.104-1.254-1.875-1.757
			c-0.771-0.504-1.667-0.904-2.689-1.203s-2.146-0.448-3.373-0.448c-1.51,0-2.894,0.244-4.152,0.731
			c-1.258,0.487-2.339,1.215-3.244,2.182c-0.905,0.967-1.608,2.162-2.111,3.586c-0.503,1.423-0.755,3.063-0.755,4.918
			c0,1.84,0.251,3.479,0.755,4.918c0.503,1.439,1.207,2.654,2.111,3.646c0.904,0.99,1.989,1.741,3.255,2.252
			c1.266,0.512,2.662,0.767,4.187,0.767c2.139,0,3.994-0.408,5.567-1.227c1.572-0.817,2.901-1.949,3.986-3.396v-4.647h-7.124v-1.887
			h9.011V122.5h-1.085l-0.825-3.444c-0.598,0.724-1.259,1.333-1.981,1.828c-0.724,0.495-1.49,0.896-2.3,1.203
			c-0.811,0.307-1.655,0.531-2.536,0.672C219.62,122.9,218.724,122.972,217.812,122.972z"/>
		<path d="M348.241,122.5h-2.076l-2.571-6.865c-0.252-0.66-0.53-1.281-0.837-1.863c-0.307-0.581-0.665-1.089-1.073-1.521
			c-0.409-0.433-0.877-0.774-1.404-1.026c-0.526-0.251-1.144-0.377-1.852-0.377h-9.034V122.5h-1.888V96.669h11.63
			c1.085,0,2.135,0.099,3.149,0.295c1.014,0.197,1.918,0.547,2.712,1.05c0.794,0.504,1.428,1.199,1.899,2.088
			s0.708,2.025,0.708,3.409c0,0.864-0.106,1.671-0.319,2.417c-0.212,0.748-0.534,1.416-0.967,2.006s-0.982,1.093-1.651,1.51
			c-0.668,0.417-1.45,0.719-2.347,0.908c0.487,0.377,0.888,0.739,1.203,1.085c0.314,0.346,0.585,0.716,0.813,1.108
			c0.228,0.394,0.433,0.826,0.613,1.298s0.39,1.014,0.625,1.627L348.241,122.5z M329.394,108.959h8.964
			c1.273,0,2.366-0.094,3.278-0.282c0.912-0.189,1.663-0.499,2.253-0.933c0.59-0.432,1.026-0.994,1.31-1.687
			c0.283-0.691,0.425-1.541,0.425-2.547c0-1.777-0.563-3.047-1.688-3.811c-1.124-0.762-2.803-1.144-5.036-1.144h-9.506V108.959z"/>
		<path d="M354.367,122.5h-1.887V96.669h1.887V122.5z"/>
		<path d="M378.231,122.5h-18.659V96.669h18.022v1.888H361.46v9.554h15.121v1.887H361.46v10.615h16.771V122.5z"/>
		<path d="M401.602,122.5h-2.477l-15.758-23.59v23.59h-1.887V96.669h2.595l15.64,23.543V96.669h1.887V122.5z"/>
		<path d="M423.603,98.557h-9.034V122.5h-1.888V98.557h-8.94v-1.888h19.862V98.557z"/>
		<path d="M444.613,122.5h-18.659V96.669h18.022v1.888h-16.135v9.554h15.121v1.887h-15.121v10.615h16.771V122.5z"/>
		<path d="M466.757,122.5h-18.659V96.669h18.022v1.888h-16.135v9.554h15.121v1.887h-15.121v10.615h16.771V122.5z"/>
		<path d="M490.929,122.5h-2.076l-2.571-6.865c-0.252-0.66-0.53-1.281-0.837-1.863c-0.307-0.581-0.665-1.089-1.073-1.521
			c-0.409-0.433-0.877-0.774-1.404-1.026c-0.526-0.251-1.144-0.377-1.852-0.377h-9.034V122.5h-1.888V96.669h11.63
			c1.085,0,2.135,0.099,3.149,0.295c1.014,0.197,1.918,0.547,2.712,1.05c0.794,0.504,1.428,1.199,1.899,2.088
			s0.708,2.025,0.708,3.409c0,0.864-0.106,1.671-0.319,2.417c-0.212,0.748-0.534,1.416-0.967,2.006s-0.982,1.093-1.651,1.51
			c-0.668,0.417-1.45,0.719-2.347,0.908c0.487,0.377,0.888,0.739,1.203,1.085c0.314,0.346,0.585,0.716,0.813,1.108
			c0.228,0.394,0.433,0.826,0.613,1.298s0.39,1.014,0.625,1.627L490.929,122.5z M472.081,108.959h8.964
			c1.273,0,2.366-0.094,3.278-0.282c0.912-0.189,1.663-0.499,2.253-0.933c0.59-0.432,1.026-0.994,1.31-1.687
			c0.283-0.691,0.425-1.541,0.425-2.547c0-1.777-0.563-3.047-1.688-3.811c-1.124-0.762-2.803-1.144-5.036-1.144h-9.506V108.959z"/>
		<path d="M497.055,122.5h-1.887V96.669h1.887V122.5z"/>
		<path d="M522.146,122.5h-2.477l-15.758-23.59v23.59h-1.887V96.669h2.595l15.64,23.543V96.669h1.887V122.5z"/>
		<path d="M537.448,122.972c-1.84,0-3.519-0.322-5.036-0.968c-1.518-0.645-2.819-1.553-3.904-2.724
			c-1.085-1.172-1.922-2.587-2.512-4.246s-0.885-3.504-0.885-5.532c0-2.044,0.299-3.884,0.896-5.52s1.435-3.031,2.512-4.188
			s2.363-2.044,3.857-2.666c1.493-0.62,3.145-0.932,4.953-0.932c1.416,0,2.736,0.178,3.964,0.531
			c1.227,0.354,2.319,0.857,3.278,1.51s1.754,1.436,2.383,2.347c0.629,0.912,1.062,1.927,1.297,3.043h-2.028
			c-0.126-0.755-0.429-1.466-0.908-2.135c-0.479-0.668-1.104-1.254-1.875-1.757c-0.771-0.504-1.667-0.904-2.689-1.203
			s-2.146-0.448-3.373-0.448c-1.51,0-2.894,0.244-4.152,0.731c-1.258,0.487-2.339,1.215-3.243,2.182s-1.608,2.162-2.111,3.586
			c-0.504,1.423-0.755,3.063-0.755,4.918c0,1.84,0.251,3.479,0.755,4.918c0.503,1.439,1.207,2.654,2.111,3.646
			c0.904,0.99,1.989,1.741,3.255,2.252c1.267,0.512,2.662,0.767,4.188,0.767c2.139,0,3.994-0.408,5.567-1.227
			c1.572-0.817,2.901-1.949,3.986-3.396v-4.647h-7.124v-1.887h9.011V122.5h-1.085l-0.825-3.444
			c-0.598,0.724-1.259,1.333-1.981,1.828c-0.724,0.495-1.49,0.896-2.3,1.203c-0.811,0.307-1.655,0.531-2.536,0.672
			C539.257,122.9,538.36,122.972,537.448,122.972z"/>
	</g>
	<rect x="294.979" y="96.65" fill="#FFFFFF" width="24.634" height="24.631"/>
	<polygon fill="#F18F0F" points="294.979,121.281 319.613,96.65 319.613,121.281 	"/>
	<rect x="294.979" y="96.65" fill="none" stroke="#000000" stroke-width="2" width="24.634" height="24.631"/>
</g>
</svg>
