<!-- 
.uk-section {
  background-image: url('/images/solv-logo-bg.svg');
}
 -->
<svg xmlns="http://www.w3.org/2000/svg" width="500" height="230" viewBox="0 0 1024 1024" opacity="0.1">
  <style>
        svg{background-color:transparent;}
        #frame{fill:#81CCAA;}
        .compass-needle{fill:none;stroke:black;stroke-width:9}
  </style>
  <!-- <path id="frame" d="M52,32 h408 a20,20 0 0 1 20,20 v408 a20,20 0 0 1 -20,20 h-408 a20,20 0 0 1 -20,-20 v-408 a20,20 0 0 1 20,-20 z"/> -->
  <g id="compass-rose">
    <path id="ring" d="M 256, 256 m -192, 0 a 192,192 0 1,0 384,0 a 192,192 0 1,0 -384,0" fill-opacity="1" fill="lightgray" stroke="black" stroke-width="32" />
    <path id="mark-n" d="M 256,64 v25" stroke="black" stroke-width="15" stroke-linecap="round"/>
    <path id="mark-s" d="M 256,448 v-25" stroke="black" stroke-width="15" stroke-linecap="round"/>
    <path id="mark-o" d="M 448,256 h-25" stroke="black" stroke-width="15" stroke-linecap="round"/>
    <path id="mark-s" d="M 64,256 h25" stroke="black" stroke-width="15" stroke-linecap="round"/>
  </g>
  <g id="flag">
    <path id="upper-triangle" d="M 138,364 v-216 a10,10 0 0 1 10,-10 h216 z" fill="white"/>
    <path id="lower-triangle" d="M 374,148 v216 a10,10 0 0 1 -10,10 h-216 z" fill="orange"/>
    <path id="flag-rectangle" d="M 148,138 h216 a10,10 0 0 1 10,10 v216 a10,10 0 0 1 -10,10 h-216 a10,10 0 0 1 -10,-10 v-216 a10,10 0 0 1 10,-10 z" stroke="black" stroke-width="2" fill-opacity="0.1"/>
  </g>
  <g id="compass-needle" class="compass-needle">
    <path id="bearing" d="M 256, 256 m -8, 0 a 8,8 0 1,0 16,0 a 8,8 0 1,0 -16,0" fill="black" stroke-width="20"/>
    <path id="compass-arrow-ne" d="M 344,138 h20 a10,10 0 0 1 10,10 v20" stroke-linecap="round"/>
    <path id="compass-arrow-sw" d="M 168,374 h-20 a10,10 0 0 1 -10,-10 v-20" stroke-linecap="round"/>
    <path id="upper-needle-line" d="M 364,138 L 138 364" />
    <path id="lower-needle-line" d="M 374,148 L 148 374" />
  </g>
</svg>