<svg width="512px" height="512px">
    <style>
        svg{background-color:white;}
        #frame{fill:#81CCAA;}
        #body{fill:#B8E4C2;}
        #pupil{fill:#1F2600;}
        #beak{fill:#F69C0D;}
        .compass-needle{fill:none;stroke:#F6FDC4;stroke-width:8}
    </style>
      <path 
        id="frame"
        d="M52,32 h408 a20,20 0 0 1 20,20 v408 a20,20 0 0 1 -20,20 h-408 a20,20 0 0 1 -20,-20 v-408 a20,20 0 0 1 20,-20 z"/>
      <path
        id="compass-rose"
        d="
        M 256, 256
        m -192, 0
        a 192,192 0 1,0 384,0
        a 192,192 0 1,0 -384,0"
        fill-opacity="0.5"
        stroke="black"
        stroke-width="32" />
      <path 
        class="compass-needle"
        d="
        M 256, 256
        m -8, 0
        a 8,8 0 1,0 16,0
        a 8,8 0 1,0 -16,0"/>
      <path
        id="flag" 
        d="M 148,138 h216 a10,10 0 0 1 10,10 v216 a10,10 0 0 1 -10,10 h-216 a10,10 0 0 1 -10,-10 v-216 a10,10 0 0 1 10,-10 z" stroke="black" stroke-width="3" fill-opacity="0.1"/>
      <path
        class="compass-needle"
        id="compass-arrow-ne" 
        d="M 344,138 h20 a10,10 0 0 1 10,10 v20"/>
      <path
        class="compass-needle"
        id="compass-arrow-ne" 
        d="M 344,138 h20 a10,10 0 0 1 10,10 v20"/>
      <path
        class="compass-needle"
        id="compass-arrow-sw" 
        d="M 168,374 h-20 a10,10 0 0 1 -10,-10 v-20"/>
      <path
        class="compass-needle"
        id="upper-compass-line" 
        d="
        M 364,138
        L 138 364" />
      <path
        class="compass-needle"
        id="lower-compass-line" 
        d="
        M 374,148
        L 148 374" />
</svg>