<?xml version="1.0" standalone="no"?>
<!DOCTYPE svg PUBLIC "-//W3C//DTD SVG 20010904//EN"
 "http://www.w3.org/TR/2001/REC-SVG-20010904/DTD/svg10.dtd">
<svg version="1.0" xmlns="http://www.w3.org/2000/svg"
 width="420.000000pt" height="238.000000pt" viewBox="0 0 420.000000 238.000000"
 preserveAspectRatio="xMidYMid meet">

<g transform="translate(0.000000,238.000000) scale(0.100000,-0.100000)"
fill="#000000" stroke="none">
<path d="M0 1190 l0 -1190 2100 0 2100 0 0 1190 0 1190 -2100 0 -2100 0 0
-1190z m2974 1135 c11 -22 24 -35 36 -35 18 0 20 -7 20 -75 l0 -75 100 0 c60
0 100 4 100 10 0 6 22 10 49 10 44 0 50 -3 53 -22 3 -22 8 -23 83 -23 l80 0 3
53 c3 43 6 52 21 52 11 0 21 -7 25 -15 3 -9 18 -15 36 -15 18 0 33 6 36 15 4
8 15 15 25 15 18 0 19 -10 19 -185 l0 -185 165 0 165 0 0 30 c0 37 6 37 41 0
31 -32 35 -45 19 -55 -5 -3 -10 -44 -10 -90 l0 -84 50 -18 50 -18 0 -358 0
-359 -52 57 c-119 130 -118 128 -118 236 0 87 -2 97 -19 102 -11 2 -21 15 -23
28 -5 34 -24 34 -36 -1 -6 -16 -16 -30 -21 -30 -6 0 -11 -14 -11 -31 0 -17 -4
-28 -10 -24 -5 3 -10 22 -10 42 0 48 -34 118 -71 144 -22 15 -29 28 -29 54 0
42 -9 65 -25 65 -16 0 -25 -22 -25 -64 0 -23 -9 -40 -34 -64 -36 -33 -66 -105
-66 -155 0 -39 -24 -30 -28 11 -2 18 -8 32 -13 32 -5 0 -14 11 -19 25 -12 32
-27 32 -42 0 -6 -14 -15 -25 -20 -25 -4 0 -8 -32 -8 -70 l0 -71 -102 3 -103 3
-6 165 c-5 140 -25 317 -35 307 -1 -1 -10 -36 -18 -77 -10 -47 -16 -127 -16
-213 0 -125 -2 -138 -17 -135 -12 2 -22 25 -36 78 -10 41 -23 81 -29 88 -8 9
-31 12 -71 10 l-60 -3 -37 -110 -38 -110 -81 -3 -81 -3 0 95 c0 61 4 96 11 98
7 2 -4 21 -25 43 l-36 40 -37 -39 c-23 -24 -33 -41 -25 -44 8 -2 12 -31 12
-93 l0 -89 -150 0 -150 0 0 120 c0 107 -2 122 -20 140 -11 11 -24 20 -29 20
-5 0 -12 10 -15 23 -6 22 -7 22 -17 2 -7 -11 -21 -28 -33 -37 -18 -14 -22 -31
-26 -109 l-5 -92 -29 -2 c-20 0 -30 5 -36 21 -5 12 -19 25 -31 29 -25 8 -66
-11 -72 -34 -3 -11 -14 -16 -38 -15 l-34 1 -3 74 c-3 96 -8 116 -31 124 -11 3
-24 18 -30 33 -9 26 -10 26 -16 6 -4 -12 -20 -31 -36 -43 l-29 -22 0 -114 0
-115 -165 0 -165 0 0 108 c0 100 -2 111 -27 149 -15 24 -44 50 -69 62 -31 16
-47 32 -56 56 -15 44 -32 44 -50 0 -10 -25 -27 -42 -58 -58 -25 -12 -57 -39
-72 -62 -26 -38 -27 -47 -28 -152 l0 -113 -102 0 -103 0 -20 -38 c-23 -43 -65
-58 -65 -23 0 16 -6 21 -26 21 -22 0 -25 3 -21 23 4 12 2 28 -3 36 -7 12 -11
12 -24 -2 -11 -10 -12 -17 -4 -19 21 -7 0 -38 -27 -38 -24 0 -25 -2 -25 -65
l0 -65 -115 0 -115 0 0 55 c0 71 -13 96 -65 129 -24 15 -45 36 -48 47 -6 21
-37 16 -37 -6 0 -7 -14 -18 -31 -25 -16 -7 -41 -27 -55 -45 -21 -29 -24 -42
-24 -127 l0 -94 -78 -32 c-42 -18 -80 -32 -85 -32 -4 0 -6 141 -5 313 l3 312
50 16 50 16 5 110 c3 72 10 116 19 127 11 13 34 16 127 16 l114 0 0 39 c0 79
62 81 68 2 l3 -42 82 3 82 3 3 63 c2 39 -2 69 -9 78 -9 11 -7 18 11 34 13 11
26 20 30 20 12 0 24 -32 25 -65 0 -30 0 -30 60 -30 l60 0 3 138 3 137 69 0 70
0 0 -50 0 -50 208 0 209 0 13 25 c13 24 17 25 117 25 l103 0 1 33 c0 17 6 59
13 92 l13 60 17 -54 c9 -30 16 -81 16 -113 l0 -58 180 0 180 0 0 75 0 75 40
26 c35 23 44 25 65 16 23 -11 25 -10 25 13 0 24 3 25 60 25 58 0 60 -1 60 -25
0 -35 28 -44 49 -16 16 20 19 21 31 7 12 -15 14 -15 31 0 17 16 19 16 25 0 6
-15 8 -15 24 -1 15 14 18 14 30 0 11 -14 14 -14 24 1 11 14 13 14 25 0 13 -15
15 -15 32 -1 16 15 18 15 28 -2 11 -17 11 -17 25 0 14 18 15 18 25 0 9 -17 11
-17 25 2 l15 20 15 -20 c16 -20 16 -20 27 -1 12 19 12 19 26 0 14 -18 15 -18
27 -1 12 15 15 15 26 3 9 -12 16 -13 31 -3 17 10 22 9 30 -6 12 -21 29 -13 29
14 0 12 7 19 20 19 11 0 20 5 20 11 0 8 30 57 36 59 1 0 9 -16 18 -35z m-2640
-1478 c54 -30 80 -78 80 -142 -1 -60 -23 -106 -63 -134 -62 -44 -180 -44 -243
0 -35 25 -68 90 -68 134 0 63 51 136 110 158 8 3 44 6 80 6 50 1 74 -5 104
-22z m386 6 c55 -32 67 -108 25 -148 -16 -14 -22 -26 -15 -30 10 -6 70 -118
70 -130 0 -3 -23 -5 -50 -5 -50 0 -51 0 -70 44 -23 54 -53 86 -80 86 -18 0
-20 -7 -20 -65 l0 -65 -45 0 -45 0 0 165 0 165 101 0 c76 0 108 -4 129 -17z
m240 -148 l0 -165 -50 0 -50 0 0 165 0 165 50 0 50 0 0 -165z m330 135 l0 -29
-72 -3 -73 -3 -3 -32 -3 -33 70 0 71 0 0 -30 0 -30 -70 0 -70 0 0 -40 0 -40
75 0 75 0 0 -30 0 -30 -125 0 -125 0 0 165 0 165 125 0 125 0 0 -30z m244 -62
l86 -93 0 93 0 92 50 0 50 0 0 -165 0 -165 -44 0 c-43 0 -47 3 -130 92 l-86
92 0 -92 0 -92 -50 0 -50 0 0 165 0 165 44 0 c43 0 47 -3 130 -92z m596 52 l0
-40 -60 0 -60 0 0 -125 0 -125 -50 0 -50 0 0 125 0 125 -60 0 -60 0 0 40 0 40
170 0 170 0 0 -40z m304 8 l2 -28 -73 0 -73 0 0 -35 0 -35 70 0 70 0 0 -30 0
-30 -70 0 -70 0 0 -40 0 -40 75 0 75 0 0 -30 0 -30 -125 0 -125 0 0 165 0 166
122 -3 121 -3 1 -27z m316 2 l0 -29 -72 -3 -73 -3 0 -30 0 -30 68 -3 c67 -3
67 -3 67 -32 0 -29 0 -29 -67 -32 l-68 -3 0 -35 0 -35 73 -3 72 -3 0 -29 0
-30 -120 0 -120 0 0 165 0 165 120 0 120 0 0 -30z m303 19 c60 -31 77 -111 32
-153 -23 -21 -24 -25 -9 -37 8 -7 29 -39 45 -71 l29 -58 -53 0 c-54 0 -54 0
-73 41 -25 58 -52 89 -75 89 -17 0 -19 -7 -19 -65 l0 -65 -50 0 -50 0 0 165 0
165 101 0 c55 0 110 -5 122 -11z m247 -154 l0 -165 -50 0 -50 0 0 165 0 165
50 0 50 0 0 -165z m420 5 l0 -160 -160 0 -160 0 0 160 0 160 160 0 160 0 0
-160z m389 149 c27 -9 31 -16 31 -46 0 -30 -3 -34 -17 -28 -38 16 -96 22 -131
14 -81 -18 -109 -104 -52 -160 25 -26 36 -30 72 -27 35 2 43 7 43 23 0 13 -8
21 -22 23 -18 3 -23 10 -23 33 l0 29 65 0 65 0 0 -79 0 -79 -34 -12 c-44 -14
-153 -15 -191 0 -92 35 -131 141 -85 235 30 61 77 84 171 85 42 0 90 -5 108
-11z m-1891 -409 c1274 0 1922 -3 1922 -10 0 -7 -692 -10 -2055 -10 -1130 0
-2055 4 -2055 8 0 21 23 24 140 18 69 -3 990 -6 2048 -6z m-1989 -110 c15 -8
21 -20 21 -45 0 -38 -5 -42 -34 -20 -11 8 -37 15 -59 15 -34 0 -38 -2 -35 -22
2 -15 19 -31 50 -48 69 -38 88 -58 88 -97 0 -19 -5 -43 -10 -54 -25 -46 -125
-64 -195 -35 -31 13 -35 19 -35 50 0 40 4 42 40 21 32 -18 96 -19 103 -2 8 21
-3 32 -59 60 -60 31 -73 45 -80 89 -6 37 21 82 60 99 26 11 117 5 145 -11z
m3884 1 c22 -9 27 -17 27 -46 0 -19 -2 -35 -4 -35 -2 0 -21 7 -42 16 -58 24
-121 14 -156 -25 -50 -56 -32 -128 38 -151 45 -15 84 -6 84 20 0 15 -7 20 -25
20 -21 0 -25 5 -25 30 l0 30 65 0 65 0 0 -79 0 -79 -44 -11 c-66 -16 -145 -13
-192 8 -74 34 -103 95 -89 186 7 53 56 108 108 124 38 12 151 8 190 -8z
m-3370 -8 c3 -10 34 -84 70 -165 l66 -148 -50 0 c-48 0 -51 2 -65 35 l-14 35
-74 0 -75 0 -12 -35 c-12 -33 -15 -35 -61 -35 -26 0 -48 3 -48 6 0 3 23 58 51
122 28 64 60 136 70 160 l18 42 59 0 c48 0 61 -3 65 -17z m467 -108 l0 -125
75 0 75 0 0 -40 0 -40 -125 0 -125 0 0 165 0 165 50 0 50 0 0 -125z m680 120
c0 -2 -36 -57 -81 -122 l-80 -118 85 -3 86 -3 0 -39 0 -40 -165 0 c-91 0 -165
3 -165 6 0 3 34 56 76 117 42 60 78 116 81 124 4 10 -11 13 -71 13 l-76 0 0
35 0 35 155 0 c85 0 155 -2 155 -5z m494 -16 c32 -25 34 -66 6 -101 l-19 -25
29 -22 c25 -18 30 -29 30 -65 0 -33 -6 -48 -26 -67 -24 -22 -35 -24 -150 -28
l-124 -3 0 166 0 166 114 0 c99 0 117 -3 140 -21z m386 -71 c0 -55 6 -103 13
-118 24 -48 104 -52 128 -7 7 12 14 66 17 119 l5 98 43 0 44 0 0 -112 c0 -136
-14 -168 -87 -200 -58 -26 -150 -22 -190 8 -60 45 -68 66 -71 190 l-4 114 51
0 51 0 0 -92z m776 59 c32 -37 32 -86 -1 -125 -22 -27 -23 -31 -9 -43 17 -14
64 -101 64 -119 0 -5 -22 -10 -48 -10 -48 0 -49 1 -68 41 -27 61 -52 89 -80
89 -23 0 -24 -3 -24 -65 l0 -65 -45 0 -45 0 0 166 0 166 116 -4 c113 -3 116
-4 140 -31z"/>
<path d="M169 771 c-34 -28 -34 -104 0 -132 23 -19 74 -25 106 -13 25 10 47
62 40 95 -14 65 -94 92 -146 50z"/>
<path d="M580 772 c0 -21 2 -41 5 -44 3 -3 22 -2 43 1 29 5 38 11 40 31 5 29
-21 50 -60 50 -26 0 -28 -3 -28 -38z"/>
<path d="M2930 769 l0 -40 38 3 c31 2 38 7 40 27 4 29 -20 51 -55 51 -20 0
-23 -5 -23 -41z"/>
<path d="M3555 710 c82 -82 151 -150 152 -150 2 0 3 68 3 150 l0 150 -152 0
-153 0 150 -150z"/>
<path d="M651 209 c-11 -29 -21 -56 -21 -60 0 -5 20 -9 45 -9 26 0 45 5 45 11
0 18 -34 109 -41 109 -3 0 -16 -23 -28 -51z"/>
<path d="M2230 260 l0 -41 36 3 c22 2 42 10 48 21 17 26 -5 51 -48 55 l-36 3
0 -41z"/>
<path d="M2230 120 l0 -40 45 0 c52 0 74 24 55 60 -8 15 -21 20 -55 20 l-45 0
0 -40z"/>
<path d="M3380 250 c0 -38 2 -40 29 -40 44 0 61 10 61 34 0 31 -19 46 -57 46
-32 0 -33 -1 -33 -40z"/>
</g>
</svg>
